<svg width="16" height="14" viewBox="0 0 16 14" fill="none" xmlns="http://www.w3.org/2000/svg">
<path d="M8 14L6.84 13.0082C5.49333 11.851 4.38 10.8529 3.5 10.0136C2.62 9.17439 1.92 8.42085 1.4 7.75303C0.88 7.0857 0.5168 6.4723 0.3104 5.91281C0.104 5.35331 0.000533333 4.78111 0 4.19619C0 3.00091 0.42 2.00272 1.26 1.20163C2.1 0.400545 3.14667 0 4.4 0C5.09333 0 5.75333 0.139873 6.38 0.419618C7.00667 0.699364 7.54667 1.09355 8 1.60218C8.45333 1.09355 8.99333 0.699364 9.62 0.419618C10.2467 0.139873 10.9067 0 11.6 0C12.8533 0 13.9 0.400545 14.74 1.20163C15.58 2.00272 16 3.00091 16 4.19619C16 4.78111 15.8965 5.35331 15.6896 5.91281C15.4827 6.4723 15.1195 7.0857 14.6 7.75303C14.08 8.42085 13.38 9.17439 12.5 10.0136C11.62 10.8529 10.5067 11.851 9.16 13.0082L8 14ZM8 11.9401C9.28 10.8465 10.3333 9.90859 11.16 9.12632C11.9867 8.34405 12.64 7.66401 13.12 7.08621C13.6 6.50739 13.9333 5.99215 14.12 5.54049C14.3067 5.08883 14.4 4.64073 14.4 4.19619C14.4 3.43324 14.1333 2.79746 13.6 2.28883C13.0667 1.7802 12.4 1.52589 11.6 1.52589C10.9733 1.52589 10.3933 1.69424 9.86 2.03095C9.32667 2.36767 8.96 2.79695 8.76 3.3188H7.24C7.04 2.79746 6.67333 2.36817 6.14 2.03095C5.60667 1.69373 5.02667 1.52538 4.4 1.52589C3.6 1.52589 2.93333 1.7802 2.4 2.28883C1.86667 2.79746 1.6 3.43324 1.6 4.19619C1.6 4.64123 1.69333 5.08959 1.88 5.54125C2.06667 5.99292 2.4 6.5079 2.88 7.08621C3.36 7.66452 4.01333 8.34481 4.84 9.12708C5.66667 9.90936 6.72 10.847 8 11.9401Z" fill="white"/>
</svg>
