<svg width="10" height="11" viewBox="0 0 10 11" fill="none" xmlns="http://www.w3.org/2000/svg">
<path d="M3.53889 1.98917C3.43854 2.34909 3.38807 2.72108 3.38889 3.09473C3.38889 5.36139 5.23333 7.20584 7.5 7.20584C7.87778 7.20584 8.25 7.15584 8.60556 7.05584C8.31372 7.7729 7.81491 8.38678 7.17275 8.81918C6.53058 9.25157 5.77417 9.48289 5 9.48361C2.85556 9.48361 1.11111 7.73917 1.11111 5.59473C1.11111 3.96695 2.11667 2.56695 3.53889 1.98917ZM5 0.594727C4.0111 0.594727 3.0444 0.887971 2.22215 1.43738C1.39991 1.98679 0.759043 2.76768 0.380605 3.68131C0.0021664 4.59494 -0.0968502 5.60027 0.0960758 6.57018C0.289002 7.54008 0.765206 8.431 1.46447 9.13026C2.16373 9.82952 3.05465 10.3057 4.02455 10.4987C4.99445 10.6916 5.99979 10.5926 6.91342 10.2141C7.82705 9.83568 8.60794 9.19482 9.15735 8.37258C9.70676 7.55033 10 6.58363 10 5.59473C10 5.33917 9.97778 5.08361 9.94444 4.83917C9.66685 5.22842 9.30007 5.54554 8.87479 5.76398C8.44951 5.98242 7.9781 6.09583 7.5 6.09472C6.864 6.09474 6.24444 5.89274 5.73067 5.51787C5.21689 5.14299 4.83547 4.61462 4.64141 4.00895C4.44735 3.40328 4.45068 2.75163 4.65093 2.14798C4.85117 1.54433 5.23798 1.01988 5.75556 0.650282C5.51111 0.616949 5.25556 0.594727 5 0.594727Z" fill="white"/>
</svg>
