<svg width="16" height="14" viewBox="0 0 16 14" fill="none" xmlns="http://www.w3.org/2000/svg">
<path d="M15.8948 12.7679C14.8792 11.1512 13.2933 9.89141 11.3924 9.19146C12.3377 8.54842 13.0359 7.65191 13.3882 6.62892C13.7406 5.60593 13.7291 4.50833 13.3554 3.49159C12.9818 2.47485 12.2649 1.59052 11.3063 0.963867C10.3477 0.337211 9.19605 0 8.01444 0C6.83282 0 5.68116 0.337211 4.72258 0.963867C3.76401 1.59052 3.04711 2.47485 2.67345 3.49159C2.29979 4.50833 2.28831 5.60593 2.64063 6.62892C2.99295 7.65191 3.69121 8.54842 4.6365 9.19146C2.73562 9.89141 1.14971 11.1512 0.134073 12.7679C0.0711401 12.8597 0.0291959 12.962 0.0107336 13.0688C-0.00772877 13.1756 -0.00233248 13.2847 0.0266018 13.3895C0.055536 13.4943 0.107417 13.5929 0.179162 13.6792C0.250906 13.7655 0.341049 13.8378 0.444231 13.8919C0.547413 13.9459 0.661527 13.9806 0.779791 13.9939C0.898054 14.0072 1.01805 13.9987 1.13265 13.9691C1.24725 13.9395 1.35411 13.8892 1.44688 13.8214C1.53965 13.7536 1.61643 13.6695 1.67266 13.5742C3.01495 11.4698 5.38543 10.2147 8.01444 10.2147C10.6434 10.2147 13.0139 11.4705 14.3562 13.5742C14.4781 13.7519 14.6714 13.8797 14.8952 13.9305C15.1191 13.9814 15.356 13.9512 15.5558 13.8465C15.7556 13.7418 15.9027 13.5707 15.9659 13.3695C16.0292 13.1682 16.0037 12.9525 15.8948 12.7679ZM4.16241 5.10838C4.16241 4.41737 4.38832 3.74187 4.81159 3.16731C5.23486 2.59276 5.83646 2.14494 6.54033 1.8805C7.24419 1.61606 8.01871 1.54688 8.76593 1.68169C9.51315 1.8165 10.1995 2.14925 10.7382 2.63787C11.2769 3.12649 11.6438 3.74903 11.7925 4.42677C11.9411 5.10451 11.8648 5.807 11.5732 6.44541C11.2817 7.08383 10.788 7.62949 10.1545 8.0134C9.52105 8.3973 8.7763 8.60221 8.01444 8.60221C6.99318 8.60115 6.01408 8.2327 5.29194 7.57771C4.5698 6.92273 4.16358 6.03468 4.16241 5.10838Z" fill="white"/>
</svg>
