<svg width="16" height="15" viewBox="0 0 16 15" fill="none" xmlns="http://www.w3.org/2000/svg">
<path d="M9.18519 11.1111C9.18519 11.3309 9.11568 11.5457 8.98545 11.7284C8.85522 11.9111 8.67012 12.0535 8.45355 12.1376C8.23699 12.2217 7.99869 12.2437 7.76878 12.2009C7.53888 12.158 7.3277 12.0522 7.16195 11.8968C6.9962 11.7414 6.88332 11.5434 6.83759 11.3279C6.79186 11.1123 6.81533 10.8889 6.90503 10.6859C6.99474 10.4829 7.14665 10.3093 7.34155 10.1873C7.53645 10.0652 7.76559 10 8 10C8.31433 10 8.61579 10.1171 8.83805 10.3254C9.06032 10.5338 9.18519 10.8164 9.18519 11.1111ZM16 7.5C16 8.98336 15.5308 10.4334 14.6518 11.6668C13.7727 12.9001 12.5233 13.8614 11.0615 14.4291C9.59966 14.9968 7.99113 15.1453 6.43928 14.8559C4.88743 14.5665 3.46197 13.8522 2.34315 12.8033C1.22433 11.7544 0.462403 10.418 0.153721 8.96318C-0.15496 7.50832 0.00346629 6.00032 0.608967 4.62987C1.21447 3.25943 2.23985 2.08809 3.55544 1.26398C4.87103 0.439867 6.41775 0 8 0C10.121 0.00220571 12.1545 0.79309 13.6543 2.19914C15.154 3.60518 15.9976 5.51155 16 7.5ZM14.2222 7.5C14.2222 6.34627 13.8573 5.21846 13.1736 4.25917C12.4899 3.29989 11.5181 2.55221 10.3811 2.1107C9.24418 1.66919 7.9931 1.55367 6.78611 1.77875C5.57911 2.00383 4.47042 2.5594 3.60023 3.37521C2.73003 4.19102 2.13743 5.23042 1.89734 6.36197C1.65725 7.49353 1.78047 8.66642 2.25142 9.73232C2.72236 10.7982 3.51988 11.7093 4.54312 12.3502C5.56636 12.9912 6.76936 13.3333 8 13.3333C9.6497 13.3317 11.2313 12.7166 12.3978 11.623C13.5643 10.5294 14.2205 9.04659 14.2222 7.5ZM8 3.05556C6.20297 3.05556 4.74074 4.30139 4.74074 5.83333V6.11111C4.74074 6.33212 4.83439 6.54409 5.00109 6.70037C5.16779 6.85665 5.39388 6.94444 5.62963 6.94444C5.86538 6.94444 6.09147 6.85665 6.25817 6.70037C6.42487 6.54409 6.51852 6.33212 6.51852 6.11111V5.83333C6.51852 5.22083 7.18519 4.72222 8 4.72222C8.81482 4.72222 9.48148 5.22083 9.48148 5.83333C9.48148 6.44583 8.81482 6.94444 8 6.94444C7.76425 6.94444 7.53816 7.03224 7.37146 7.18852C7.20476 7.3448 7.11111 7.55676 7.11111 7.77778V8.33333C7.11058 8.53922 7.19137 8.738 7.33789 8.89135C7.48442 9.04471 7.68632 9.14178 7.90466 9.16387C8.123 9.18595 8.34233 9.13148 8.52038 9.01095C8.69842 8.89042 8.82257 8.71236 8.86889 8.51111C10.2452 8.18611 11.2593 7.10903 11.2593 5.83333C11.2593 4.30139 9.79704 3.05556 8 3.05556Z" fill="white"/>
</svg>
