<svg width="15" height="15" viewBox="0 0 15 15" fill="none" xmlns="http://www.w3.org/2000/svg">
<path d="M9.199 14.5682C8.91114 14.8561 8.55444 15 8.12891 15C7.70338 15 7.34668 14.8561 7.05883 14.5682L0.450568 7.95995C0.312896 7.82228 0.203259 7.65957 0.121657 7.47184C0.0400546 7.28411 -0.000496047 7.08386 4.5789e-06 6.87109V1.50188C4.5789e-06 1.08886 0.147189 0.73517 0.441556 0.440802C0.735924 0.146434 1.08937 -0.000499351 1.50188 1.27494e-06H6.87109C7.08386 1.27494e-06 7.28411 0.0408024 7.47184 0.122404C7.65958 0.204006 7.82228 0.313393 7.95995 0.450564L14.5682 7.0776C14.8561 7.36546 15 7.71915 15 8.13867C15 8.5582 14.8561 8.91164 14.5682 9.199L9.199 14.5682ZM8.12891 13.5169L13.4981 8.14769L6.87109 1.50188H1.50188V6.87109L8.12891 13.5169ZM3.37923 4.50563C3.69212 4.50563 3.9582 4.396 4.17747 4.17672C4.39675 3.95745 4.50614 3.69162 4.50564 3.37923C4.50564 3.06633 4.396 2.80025 4.17672 2.58098C3.95745 2.3617 3.69162 2.25232 3.37923 2.25282C3.06634 2.25282 2.80025 2.36245 2.58098 2.58173C2.36171 2.801 2.25232 3.06683 2.25282 3.37923C2.25282 3.69212 2.36246 3.9582 2.58173 4.17747C2.80101 4.39675 3.06684 4.50613 3.37923 4.50563Z" fill="white"/>
</svg>
